<?xml version="1.0" encoding="UTF-8"?>
<svg width="176px" height="25px" viewBox="0 0 176 25" version="1.1" xmlns="http://www.w3.org/2000/svg" xmlns:xlink="http://www.w3.org/1999/xlink">
    <!-- Generator: Sketch 59.1 (86144) - https://sketch.com -->
    <title>logo-nav</title>
    <desc>Created with Sketch.</desc>
    <g id="Liver-Longevity" stroke="none" stroke-width="1" fill="none" fill-rule="evenodd">
        <g id="liverscore-results-desktop" transform="translate(-516.000000, -23.000000)" fill="#545DFF">
            <path d="M524.451508,29.3063355 L534.774112,32.5118028 L530.030927,47.9958138 L519.708322,44.7903465 L524.451508,29.3063355 Z M676.631576,24.4891898 C679.364811,24.4891898 682.199277,25.1058727 683.549023,25.996637 L683.549023,32.3690274 L683.279074,32.3690274 C681.794354,30.82732 679.297324,29.9022956 676.530345,29.9022956 C674.438239,29.9022956 673.324699,30.5189785 673.324699,31.7180843 C673.324699,32.6917581 674.102476,33.1389766 676.801364,33.414439 L676.969013,33.4310925 C682.705432,33.9792551 685,36.0006047 685,40.5572065 C685,45.2851091 681.693123,47.9231416 675.754241,47.9231416 C671.974953,47.9231416 669.241718,47.3407189 667.453305,46.1416131 L667.453305,39.7692227 L667.723254,39.7692227 C669.81536,41.5164911 672.616082,42.5100358 675.518036,42.5100358 C677.846347,42.5100358 678.926144,41.927613 678.926144,40.6942471 C678.926144,39.7007024 678.082553,39.2210601 675.214343,38.981239 C669.511667,38.5015967 667.217099,36.480247 667.217099,32.0606859 C667.217099,27.264263 670.658951,24.4891898 676.631576,24.4891898 Z M569.404845,24.4891898 C572.344082,24.4891898 574.060951,24.8950534 575.753905,25.8560952 L575.984727,25.9906016 L575.984727,32.7128319 L575.717523,32.7128319 C574.414907,30.9725591 572.310681,30.0171152 569.705449,30.0171152 C566.031403,30.0171152 563.626574,32.4398479 563.626574,36.1592545 C563.626574,39.8786611 566.031403,42.3013938 569.705449,42.3013938 C572.206472,42.3013938 574.245768,41.4208567 575.557381,39.8107318 L575.717523,39.6056771 L575.984727,39.6056771 L575.984727,46.3279074 C574.214505,47.3857203 572.477683,47.8293192 569.404845,47.8293192 C562.290557,47.8293192 557.480898,42.9838538 557.480898,36.1592545 C557.480898,29.3346552 562.290557,24.4891898 569.404845,24.4891898 Z M645.059252,24.4691 L655.318236,24.4691 C661.10796,24.4691 664.087467,27.1372564 664.087467,32.3331399 C664.087467,35.87366 662.686634,38.2587656 659.977584,39.3924223 L659.719781,39.4950333 L664.764628,47.7803611 L657.552867,47.7803611 L653.489902,40.1971798 L651.221414,40.1971798 L651.221414,47.7803611 L645.059252,47.7803611 L645.059252,24.4691 L655.318236,24.4691 Z M620.997686,24.4691 L620.997686,30.1457951 L609.929978,30.1457951 L609.929978,33.5448039 L618.522919,33.5448039 L618.522919,38.7309204 L609.929978,38.7309204 L609.929978,42.0598466 L620.997686,42.0598466 L620.997686,47.7365417 L603.674317,47.7365417 L603.674317,24.4691 L620.997686,24.4691 Z M641.690153,24.4691 L641.690153,30.1457951 L630.622445,30.1457951 L630.622445,33.5448039 L639.215386,33.5448039 L639.215386,38.7309204 L630.622445,38.7309204 L630.622445,42.0598466 L641.690153,42.0598466 L641.690153,47.7365417 L624.366784,47.7365417 L624.366784,24.4691 L641.690153,24.4691 Z M585.857291,24.4691 L585.857291,33.1686704 L593.912765,33.1686704 L593.912765,24.4691 L600.125036,24.4691 L600.125036,47.5751588 L593.912765,47.5751588 L593.912765,38.8059919 L585.857291,38.8059919 L585.857291,47.5751588 L579.64502,47.5751588 L579.64502,24.4691 L585.857291,24.4691 Z M542.361274,34.8242029 L548.016094,38.6730199 L539.784613,41.2043176 L542.361274,34.8242029 Z M518.202833,31.7075777 L521.461221,32.765627 L519.258972,39.6432677 L515.999957,38.5851526 L518.202833,31.7075777 Z M655.066425,30.112879 L651.187143,30.112879 L651.187143,34.5297495 L655.066425,34.5297495 C657.05756,34.5297495 657.915808,33.852971 657.915808,32.3213143 C657.915808,30.7896576 657.05756,30.112879 655.066425,30.112879 Z M546.678698,23.003997 L542.21876,34.1285799 L532.384392,27.3998449 L546.678698,23.003997 Z M689.352,24.956 C690.528,24.956 691.404,25.832 691.404,27.008 C691.404,28.184 690.528,29.06 689.352,29.06 C688.176,29.06 687.3,28.184 687.3,27.008 C687.3,25.832 688.176,24.956 689.352,24.956 Z M689.352,25.34 C688.416,25.34 687.714,26.042 687.714,27.008 C687.714,27.974 688.416,28.676 689.352,28.676 C690.282,28.676 690.984,27.974 690.984,27.008 C690.984,26.042 690.282,25.34 689.352,25.34 Z M689.484,25.958 C690.006,25.958 690.27,26.192 690.27,26.636 C690.27,26.984 690.114,27.194 689.808,27.278 L689.808,27.278 L690.336,28.058 L689.82,28.058 L689.376,27.314 L688.986,27.314 L688.986,28.058 L688.548,28.058 L688.548,25.958 Z M689.466,26.348 L688.986,26.348 L688.986,26.942 L689.466,26.942 C689.706,26.942 689.826,26.846 689.826,26.648 C689.826,26.45 689.706,26.348 689.466,26.348 L689.466,26.348 Z" id="logo-nav"></path>
        </g>
    </g>
</svg>