<svg xmlns="http://www.w3.org/2000/svg" fill="none" viewBox="0 0 196 15" height="15" width="196">
<g clip-path="url(#clip0_3618_1179)">
<path fill="white" d="M0 14.4399V0.408691H12.3526V2.79027H2.38875V6.01831H7.86207V8.39989H2.38875V12.0583H12.6324V14.4471H0V14.4399Z"></path>
<path fill="white" d="M32.3521 14.4399L30.566 11.1617H22.0081L20.2721 14.4399H17.5605L25.15 0.408691H27.5316L35.1713 14.4399H32.3521ZM26.3121 3.08438L23.2491 8.8016H29.368L26.305 3.08438H26.3121Z"></path>
<path fill="white" d="M47.359 14.9279C42.8613 14.9279 38.6074 12.4387 38.6074 7.5034C38.6074 2.56809 42.5672 0 47.0075 0C49.7406 0 52.158 0.946892 54.2957 2.62547L53.026 4.63403C51.0748 3.27826 49.4752 2.41027 47.0362 2.41027C44.0018 2.41027 40.9962 4.16776 40.9962 7.5034C40.9962 10.839 44.2242 12.5176 47.3088 12.5176C49.6115 12.5176 51.5052 11.8362 53.4062 10.5378L54.4607 12.7328C52.2656 14.2536 50.049 14.9279 47.3662 14.9279H47.359Z"></path>
<path fill="white" d="M71.7918 14.4399V8.42141H63.1765V14.4399H60.7949V0.408691H63.1765V6.047H71.7918V0.408691H74.1734V14.4399H71.7918Z"></path>
<path fill="white" d="M93.6491 14.44L92.652 13.3568C90.8945 14.3755 89.9189 14.7557 87.8315 14.7557C85.1558 14.7557 81.7412 13.2923 81.7412 10.1934C81.7412 7.71136 84.0582 6.32689 85.9018 6.09734C85.4355 5.63107 84.7325 4.59092 84.7325 3.29253C84.7325 1.36288 86.2605 0.0429688 89.0438 0.0429688C90.8945 0.0429688 92.6735 0.702924 93.5487 1.25528L92.5301 3.27101C91.8055 2.84778 90.2991 2.14478 89.1083 2.14478C87.853 2.14478 87.2361 2.6541 87.2361 3.27101C87.2361 4.03857 87.7884 4.60527 88.1327 4.97111L92.8887 10.1503C93.5917 9.41146 94.1656 8.55783 94.7395 7.73288L96.6548 8.98823C96.0379 10.0499 95.299 11.004 94.4669 11.9006L96.7839 14.4472H93.6635L93.6491 14.44ZM87.5302 7.862C86.3179 8.19915 84.0941 8.62239 84.0941 10.2794C84.0941 11.8504 86.5115 12.3813 87.7239 12.3813C89.1011 12.3813 89.7826 12.1661 91.0165 11.5491L87.5302 7.85483V7.862Z"></path>
<path fill="white" d="M104.201 14.4399V0.408691H116.554V2.79027H106.583V6.01831H112.056V8.39989H106.583V12.0583H116.826V14.4471H104.201V14.4399Z"></path>
<path fill="white" d="M131.245 14.4399H128.914L121.597 0.408691H124.308L130.104 11.5705L135.958 0.408691H138.662L131.238 14.4399H131.245Z"></path>
<path fill="white" d="M143.698 14.4399V0.408691H156.051V2.79027H146.08V6.01831H151.553V8.39989H146.08V12.0583H156.323V14.4471H143.698V14.4399Z"></path>
<path fill="white" d="M174.701 14.4399L170.641 8.694H165.734V14.4399H163.324V0.408691H171.99C174.838 0.408691 177.327 1.30537 177.327 4.55493C177.327 6.93651 175.863 8.34967 173.561 8.64378L177.65 14.4399H174.701ZM172.097 2.79027H165.734V6.31242H172.234C173.561 6.31242 174.945 6.03983 174.945 4.44016C174.945 3.24937 174.378 2.7831 172.097 2.7831V2.79027Z"></path>
<path fill="white" d="M189.292 8.1273V14.4399H186.91V8.1273L180.763 0.408691H183.797L188.108 5.85332L192.42 0.408691H195.454L189.306 8.1273H189.292Z"></path>
</g>
<defs>
<clipPath id="clip0_3618_1179">
<rect fill="white" height="14.9279" width="195.44"></rect>
</clipPath>
</defs>
</svg>
