<svg width="180" height="20" viewBox="0 0 180 20" fill="none" xmlns="http://www.w3.org/2000/svg">
<path d="M45.7001 11.1265H53.3346V8.01007H45.7001V3.44186H53.6016V0.321289H42.3125V19.6747H53.8728V16.5583H45.7001V11.1265Z" fill="#1B2D45"/>
<path d="M74.5011 8.97789L70.3334 7.33834C69.2863 6.93367 68.6689 6.34543 68.6689 5.32332C68.6689 4.24698 69.6075 3.2791 71.2512 3.2791C72.8115 3.2791 73.8587 4.08427 74.7181 5.69879L77.7844 4.16771C76.7331 1.80225 74.8766 0 71.2763 0C67.6217 0 65.1478 2.47393 65.1478 5.56529C65.1478 7.76805 66.3034 9.46183 68.8024 10.4297L72.7823 11.9608C74.4761 12.6074 75.0685 13.3584 75.0685 14.5932C75.0685 15.9366 73.9129 16.7167 72.0564 16.7167C69.5575 16.7167 68.3726 15.4819 67.6467 13.3292L64.4219 14.7518C65.3647 17.7347 67.5925 19.9917 72.0564 19.9917C76.2742 19.9917 78.6438 17.5469 78.6438 14.5348C78.6438 12.8661 78.1348 11.6854 77.3005 10.7718C76.6246 10.0542 75.711 9.43263 74.5011 8.97789Z" fill="#1B2D45"/>
<path d="M87.832 3.44235H93.6643V19.6751H97.0519V3.44235H102.884V0.321777H87.832V3.44235Z" fill="#1B2D45"/>
<path d="M121.809 0C116.19 0 111.863 4.21777 111.863 10C111.863 15.7781 116.19 20 121.809 20C127.429 20 131.755 15.5111 131.755 10C131.755 4.21777 127.429 0 121.809 0ZM121.809 16.7167C118.209 16.7167 115.468 13.8131 115.468 9.99583C115.468 6.17856 118.209 3.27493 121.809 3.27493C125.409 3.27493 128.15 6.17856 128.15 9.99583C128.154 13.6295 125.414 16.7167 121.809 16.7167Z" fill="#1B2D45"/>
<path d="M170.946 16.5583V11.1265H178.577V8.01007H170.946V3.44186H178.848V0.321289H167.559V19.6747H179.115V16.5583H170.946Z" fill="#1B2D45"/>
<path d="M30.9154 6.02008C30.9154 2.66171 28.6584 0.321289 24.6242 0.321289H17.582V3.43768H20.9696H23.4978H24.5157C26.2887 3.43768 27.3109 4.4598 27.3109 6.02008C27.3109 7.55116 26.2887 8.57327 24.353 8.57327H23.4978H20.9696H17.582V19.6746H20.9696V11.6938H23.794L27.6905 19.6788H31.6162L27.2024 11.0722C29.8933 10.0001 30.9154 8.3313 30.9154 6.02008Z" fill="#1B2D45"/>
<path d="M156.154 6.02008C156.154 2.66171 153.897 0.321289 149.863 0.321289H142.821V3.43768H146.208H147.397H149.754C151.527 3.43768 152.549 4.4598 152.549 6.02008C152.549 7.55116 151.527 8.57327 149.592 8.57327H147.393H146.204H142.816V19.6746H146.204V11.6938H149.024L152.921 19.6788H156.846L152.437 11.0764C155.132 10.0001 156.154 8.3313 156.154 6.02008Z" fill="#1B2D45"/>
<path d="M2.56571 0.300293C1.14727 0.300293 0 1.45173 0 2.866V3.42086H5.13559V2.866C5.13559 1.45173 3.98415 0.300293 2.56571 0.300293Z" fill="#1B2D45"/>
<path d="M4.28502 8.54395H0.851562V19.6745H4.28502V8.54395Z" fill="#1B2D45"/>
</svg>
