<svg viewBox="0 0 2114.5 700" xmlns="http://www.w3.org/2000/svg" id="a"><polygon style="fill:#010101; stroke-width:0px;" points="642.05 163.84 642.05 240.64 548.05 240.64 548.05 163.84 519.25 163.84 519.25 167.87 519.4 339.52 548.05 339.52 548.05 251.68 642.05 251.68 642.05 339.52 670.55 339.52 670.55 331.02 670.4 163.84 642.05 163.84"></polygon><polygon style="fill:#010101; stroke-width:0px;" points="2102.06 163.84 2073.71 163.84 2073.71 240.64 1979.71 240.64 1979.71 163.84 1950.91 163.84 1950.91 167.87 1951.06 339.52 1979.71 339.52 1979.71 251.68 2073.71 251.68 2073.71 339.52 2102.2 339.52 2102.2 331.02 2102.06 163.84"></polygon><path style="fill:#010101; stroke-width:0px;" d="M959.63,328.48h-81.62c-5.57,0-9.35-.6-11.34-1.79-2.88-1.59-4.62-4.72-5.22-9.4-.1-.69-.15-4.53-.15-11.49v-57.1h82.06v-10.89h-82.06v-62.92h98.33v-11.04h-127.27v175.68h127.27v-11.04Z"></path><path style="fill:#010101; stroke-width:0px;" d="M1182.61,160.51l-77.09,178.91,15.11.02,16.61-39.71h78.27l16.2,39.71h37.69l-81.58-178.92h-5.22ZM1141.86,288.68l35.25-81.73,34.26,81.73h-69.51Z"></path><path style="fill:#010101; stroke-width:0px;" d="M1467.65,326.69c-7.06-.69-11.49-2.73-13.28-6.12-1.59-2.99-2.39-8.65-2.39-17.01v-143.05h-28.65v179.01h127.57l4.18-12.83h-87.44Z"></path><polygon style="fill:#010101; stroke-width:0px;" points="1650.05 173.94 1717.63 173.49 1717.63 339.52 1746.29 339.52 1746.29 173.49 1815.22 173.49 1815.22 160.51 1650.05 160.51 1650.05 173.94"></polygon><path style="fill:#010101; stroke-width:0px;" d="M72.4,271.31v44.74c0,8.6-6.97,15.58-15.58,15.58-17.37,0-31.47-13.88-31.89-31.15h-12.03c.42,23.91,19.9,43.18,43.92,43.18s43.61-19.09,44.2-42.85h.02v-144.57h-28.65v115.08Z"></path><path style="fill:#010101; stroke-width:0px;" d="M303.54,156.31c-35.85,0-59.02,23.44-59.02,59.7,0,14.38,10.98,28.97,28.53,38.01l32.66,19.81.03-.05,14.65,9.47c1.92.89,3.71,2,5.54,3.44l.69.61c5.7,4.98,8.98,12.17,8.98,19.7,0,10.21-6.03,19.56-15.35,23.81l-2.05.74v.03c-4.52,1.5-9.22,2.26-13.98,2.26-25.23,0-45.75-20.52-45.75-45.75v-2.1h-13.05v2.1c0,32.42,26.38,58.8,58.8,58.8,35.31,0,58.13-23.08,58.13-58.8,0-14.15-10.79-28.5-28.16-37.48l-19.67-11.93-27.42-17.72c-1.97-.91-3.82-2.06-5.71-3.57l-.62-.54c-5.8-5.08-9.13-12.38-9.13-20.04,0-10.39,6.13-19.9,15.61-24.22l.16-.1c5.2-1.98,10.63-2.98,16.14-2.98,25.64,0,46.51,20.86,46.51,46.51v2.1h13.2v-2.1c0-32.92-26.78-59.7-59.7-59.7Z"></path><path style="fill:#010101; stroke-width:0px;" d="M735.02,511.68c-.81-.27-1.22-.41-1.22-.41,0,0-.37.19-1.11.56-.74.34-1.25.91-1.52,1.72l-20.57,58.46-20.52-58.46c-.27-.81-.78-1.39-1.52-1.72-.74-.37-1.52-.42-2.33-.15-.78.27-1.35.79-1.72,1.57-.37.74-.41,1.5-.1,2.28l23.35,66.62s.03.03.1.2c.03.07.05.12.05.15.07.13.15.25.25.35v.05l.05.05c.1.13.22.27.35.4-.03-.03,0,0,.1.1.1.07.2.14.3.2.03.03.08.07.15.1.13.07.27.13.41.2h.05l.05.05c.1.03.22.07.35.1.13,0,.18,0,.15,0,.17.03.32.05.46.05.17,0,.34-.02.51-.05-.03,0,.02,0,.15,0,.14-.03.24-.07.3-.1.07-.03.08-.03.05,0l.05-.05h.05c.14-.07.25-.13.35-.2.07-.03.14-.07.2-.1.1-.07.2-.14.3-.2.1-.1.13-.13.1-.1.13-.13.25-.27.35-.4.01-.02.02-.05.05-.1.1-.1.19-.22.25-.35,0-.03.02-.08.05-.15.07-.2.1-.27.1-.2l23.35-66.62c.27-.78.24-1.54-.1-2.28-.37-.78-.95-1.3-1.72-1.57Z"></path><path style="fill:#010101; stroke-width:0px;" d="M713.04,582.96s0,0,0,0c-.02.03-.02.04,0,0Z"></path><path style="fill:#010101; stroke-width:0px;" d="M796.13,511.73c-.84,0-1.55.3-2.13.91-.61.57-.91,1.28-.91,2.13v66.36c0,.84.3,1.55.91,2.13.57.61,1.28.91,2.13.91s1.55-.3,2.13-.91c.61-.57.91-1.28.91-2.13v-66.36c0-.84-.3-1.55-.91-2.13-.57-.61-1.28-.91-2.13-.91Z"></path><path style="fill:#010101; stroke-width:0px;" d="M903.03,511.53h-46.05c-.84,0-1.57.3-2.18.91-.57.57-.86,1.28-.86,2.13s.29,1.55.86,2.13c.61.57,1.33.86,2.18.86h20.01v63.58c0,.84.29,1.57.86,2.18.61.57,1.32.86,2.13.86s1.57-.29,2.18-.86c.57-.61.86-1.33.86-2.18v-63.58h20.01c.84,0,1.55-.29,2.13-.86.61-.57.91-1.28.91-2.13s-.3-1.55-.91-2.13c-.57-.61-1.28-.91-2.13-.91Z"></path><path style="fill:#010101; stroke-width:0px;" d="M1008.36,563v-.05l-20.52-49.49c-.07-.17-.15-.35-.25-.56,0,.03-.07-.03-.2-.2-.1-.13-.17-.22-.2-.25-.03,0-.12-.07-.25-.2l-.2-.15c-.34-.24-.71-.39-1.11-.46.03,0-.05,0-.25,0-.17-.03-.27-.05-.3-.05s-.15.02-.35.05h-.25c-.37.07-.73.22-1.07.46.03-.03-.03.02-.2.15-.14.1-.22.17-.25.2-.03.03-.1.12-.2.25l-.2.2c-.1.2-.19.39-.25.56l-20.52,49.49v.05l-7.04,16.97c-.34.78-.34,1.55,0,2.33.3.78.84,1.32,1.62,1.62.37.17.56.25.56.25h.61c1.35,0,2.28-.62,2.79-1.87l6.28-15.1h36.98l6.28,15.1c.51,1.25,1.44,1.87,2.79,1.87.41,0,.79-.08,1.17-.25.77-.3,1.32-.84,1.62-1.62.34-.78.34-1.55,0-2.33l-7.04-16.97ZM969.05,561.13l16.01-38.6,16.01,38.6h-32.02Z"></path><path style="fill:#010101; stroke-width:0px;" d="M1139.63,511.84c-1.45-.4-2.58.05-3.39,1.37l-30.19,49.9-30.19-49.9c-.81-1.32-1.94-1.77-3.4-1.37-1.49.4-2.23,1.37-2.23,2.89v66.41c0,.84.28,1.57.86,2.18.61.57,1.33.86,2.18.86s1.52-.29,2.13-.86c.57-.61.86-1.33.86-2.18v-55.57l27.2,44.93.05.05v.05c.07.07.13.15.2.25.07.07.13.14.2.2.07.07.13.14.2.2.1.07.19.14.26.2.07.04.1.06.12.07.01,0,.03.01.03.03h.1c.1.07.2.12.3.15.07.03.15.07.25.1s.2.05.3.05c.07.03.15.05.25.05.1.03.2.05.31.05s.2-.02.3-.05c.1,0,.18-.02.25-.05.1,0,.2-.02.3-.05.1-.03.19-.07.26-.1.1-.03.2-.08.3-.15.13-.07.18-.08.15-.05-.1.07-.07.05.1-.05.07-.07.15-.13.25-.2.07-.07.13-.13.2-.2.03-.03.1-.1.2-.2.07-.1.13-.18.2-.25v-.05l.05-.05,27.2-44.93v55.57c0,.84.29,1.57.86,2.18.61.57,1.31.86,2.13.86s1.55-.29,2.13-.86c.61-.61.91-1.33.91-2.18v-66.41c0-1.52-.74-2.48-2.23-2.89Z"></path><path style="fill:#010101; stroke-width:0px;" d="M1206.97,511.73c-.84,0-1.55.3-2.13.91-.61.57-.91,1.28-.91,2.13v66.36c0,.84.31,1.55.91,2.13.57.61,1.28.91,2.13.91s1.55-.3,2.13-.91c.61-.57.91-1.28.91-2.13v-66.36c0-.84-.3-1.55-.91-2.13-.57-.61-1.28-.91-2.13-.91Z"></path><path style="fill:#010101; stroke-width:0px;" d="M1326.84,511.38c-.81,0-1.52.3-2.13.91-.57.57-.86,1.28-.86,2.13v57.85l-46.4-59.73c-.88-1.15-2.01-1.49-3.4-1.01-1.35.47-2.02,1.44-2.02,2.89v66.72c0,.84.3,1.55.91,2.13.57.61,1.28.91,2.13.91s1.55-.3,2.13-.91c.61-.57.91-1.28.91-2.13v-57.85l46.35,59.73.05.05.05.05c.1.1.15.15.15.15,0,0,.05.05.15.15.1.07.17.12.2.15.1.07.22.13.35.2.1.07.17.12.2.15.1.03.23.08.41.15l.2.05c.2.03.4.05.61.05.17,0,.36-.02.56-.05.03,0,.1-.02.2-.05.14-.03.26-.07.36-.1.07-.03.13-.07.2-.1.1-.03.2-.08.3-.15.07-.03.12-.07.15-.1.08-.06.11-.09.12-.1.03-.02.06-.05.13-.1.1-.1.17-.17.2-.2.07-.07.13-.15.2-.25.07-.1.12-.19.15-.25.07-.07.12-.15.15-.25.03-.1.07-.18.1-.25.03-.07.07-.17.1-.3.03-.1.05-.18.05-.25.03-.1.05-.2.05-.3,0-.2,0-.27,0-.2v-66.72c0-.84-.29-1.55-.86-2.13-.61-.61-1.34-.91-2.18-.91Z"></path><path style="fill:#010101; stroke-width:0px;" d="M1395.59,521.77c3.17-2.84,6.97-4.25,11.4-4.25,4.09,0,7.72.78,10.89,2.33,3.81,1.82,6.18,4.49,7.09,8,.2.81.66,1.42,1.37,1.82.71.44,1.47.54,2.28.3.81-.2,1.43-.66,1.87-1.37.41-.71.51-1.47.3-2.28-1.32-5.03-4.49-8.87-9.52-11.5-4.19-2.23-8.95-3.34-14.28-3.34-6.05,0-11.23,1.98-15.55,5.93-4.36,3.95-6.67,8.78-6.94,14.49-.2,4.63,1.35,8.7,4.66,12.21,4.12,4.39,10.23,6.64,18.34,6.74h.05s.08,0,.13-.01c.04,0,.08.01.12.01,6.42.1,11.1,1.72,14.03,4.86,2.16,2.26,3.17,4.86,3.04,7.8-.2,4.09-1.89,7.55-5.07,10.39-3.17,2.84-6.98,4.25-11.4,4.25-4.09,0-7.72-.76-10.89-2.28-3.82-1.86-6.18-4.54-7.09-8.06-.2-.78-.66-1.38-1.37-1.82-.74-.41-1.5-.51-2.28-.3-.81.2-1.44.66-1.87,1.37-.41.74-.51,1.5-.3,2.28,1.32,5.03,4.49,8.88,9.52,11.55,4.19,2.2,8.95,3.29,14.28,3.29,6.04,0,11.23-1.98,15.55-5.93,4.36-3.95,6.65-8.78,6.89-14.49.24-4.63-1.3-8.68-4.61-12.16-4.12-4.39-10.23-6.65-18.34-6.79-.06,0-.12.01-.18.02-.04,0-.08-.01-.13-.02-6.42-.1-11.1-1.72-14.03-4.86-2.16-2.26-3.17-4.85-3.04-7.75.2-4.12,1.89-7.6,5.07-10.44Z"></path></svg>