<svg xmlns="http://www.w3.org/2000/svg" fill="none" viewBox="0 0 184 50" height="50" width="184">
<g clip-path="url(#clip0_3_739)">
<path fill="#0963E5" d="M7.68285 0C3.07228 0 0 3.137 0 8.32362C0 12.1014 1.60086 14.4703 3.137 15.8145C3.07228 17.6073 3.00971 20.1036 2.81769 22.2805C2.43366 26.5696 0.897519 36.0453 0.897519 41.0378C0.897519 46.4164 3.39374 50 7.68285 50C12.2287 50 14.5329 46.863 14.6602 42.3172C14.7249 39.4369 14.5329 36.3625 14.3409 34.1855H15.1737C17.5426 34.1855 17.6073 36.6192 18.0539 41.6764C18.5027 46.9256 21.383 50 25.4175 50C29.452 50 32.4595 46.7983 32.4595 42.0604C32.4595 37.3225 29.6419 33.1607 23.3679 31.1133C28.3625 28.617 31.6915 24.4552 31.6915 18.9493C31.6915 15.301 29.2578 12.6106 25.6095 12.6106C21.5124 12.6106 19.5275 15.6203 18.6947 19.8447C17.9914 23.5577 16.5178 27.2082 14.4056 27.0787H14.2783L14.5351 15.2988C14.5998 13.5059 14.7271 10.6882 14.6624 8.38403C14.4682 2.68824 11.9072 0 7.68285 0ZM40.9083 50C46.2222 50 47.3743 45.0701 47.3096 39.8209C47.2449 35.2751 47.1823 30.986 47.2449 27.2082C47.8209 26.8242 48.589 26.5049 49.4218 26.5049C50.7659 26.5049 51.342 27.3376 51.2794 29.0658C51.2147 32.1381 50.5113 36.3646 50.5113 39.8209C50.5113 45.9029 53.0723 50 58.3215 50C62.3538 50 65.3635 47.055 65.3635 41.8058C65.3635 38.2848 63.9547 35.8511 61.7778 34.5717C63.0572 29.8339 63.6354 25.288 63.6354 22.151C63.6354 16.9018 61.1392 12.8047 56.3366 12.8047C52.3668 12.8047 49.2298 16.069 47.5663 20.4229C48.0777 16.5825 48.5264 12.2913 48.7184 9.09169C49.0378 3.20173 46.4142 0 42.1877 0C37.5146 0 35.0809 3.20173 34.8889 8.2589C34.7616 11.5879 34.6321 16.4531 34.6321 22.0237L34.5674 39.5016C34.5027 46.9924 36.425 50.0022 40.9062 50.0022L40.9083 50ZM67.4132 38.7961C67.6699 46.0949 70.1014 50 75.3528 50C79.3851 50 82.3948 47.055 82.3948 41.8058C82.3948 38.4121 81.178 35.9159 79.5146 34.5717L80.1553 27.7217C80.6041 22.4078 81.5642 13.8921 81.5642 8.9644C81.5642 2.94714 79.0032 0.0021575 74.7789 0.0021575C70.1057 0.0021575 67.8641 3.20388 67.5448 8.26106C67.3528 11.5901 67.4175 16.2006 67.3528 21.7691C67.288 27.1478 67.2255 33.5491 67.4175 38.7983L67.4132 38.7961ZM98.4639 12.4833C88.2201 12.4833 83.8662 20.1014 83.8662 32.6494C83.8662 45.9655 89.3074 50 96.671 50C105.571 50 110.436 43.342 110.436 30.2805C110.436 19.2039 106.658 12.4833 98.4639 12.4833ZM96.0302 36.1079C95.9008 33.931 96.0302 31.37 96.0928 29.8339L96.4121 25.7368C96.9903 25.6095 97.6289 25.48 98.0777 25.48C99.7433 25.48 100.382 26.4401 100.447 28.5523C100.511 30.6645 100.511 33.4822 100.317 35.4671C100.06 38.028 99.4844 38.9881 98.0755 38.9881C96.8587 38.9881 96.1553 38.1553 96.0281 36.1079H96.0302ZM137.644 50C141.679 50 144.686 47.055 144.686 41.9978C144.686 38.2201 143.15 35.5965 140.781 34.315L141.679 29.7044C142.255 26.8242 142.958 23.1111 142.958 20.4207C142.958 15.7476 140.844 12.4811 136.043 12.4811C131.946 12.4811 129.385 15.2988 129.193 20.2913C129.064 23.8123 129.577 31.1758 129.834 36.9364C129.256 37.3851 128.554 37.7044 127.72 37.7044C126.248 37.7044 125.672 36.6796 125.735 34.9515C125.799 31.8792 126.375 26.1165 126.375 22.6602C126.375 16.2589 124.134 12.4811 119.012 12.4811C114.85 12.4811 111.713 16.0022 111.713 20.932C111.713 24.1963 113.314 26.6947 115.364 27.9094C114.019 32.6472 113.443 37.1931 113.443 40.3301C113.443 45.5793 115.94 49.9978 121.573 49.9978C125.799 49.9978 128.936 47.3096 130.408 42.4423C131.113 47.1801 133.799 49.9978 137.642 49.9978L137.644 50ZM169.974 0C165.558 0 162.997 3.26429 162.867 9.02697L162.803 12.8673C161.907 12.6106 160.947 12.4833 159.922 12.4833C151.855 12.4833 146.093 19.2686 146.093 33.6095C146.093 44.6214 149.743 49.808 155.441 49.808C159.668 49.808 162.548 47.3118 163.957 42.5092C164.66 47.1823 167.348 50 171.126 50C175.288 50 178.233 47.1197 178.233 41.9978C178.233 38.2201 176.697 35.5965 174.328 34.315L175.223 27.2082C175.802 21.959 176.567 13.3161 176.567 8.64293C176.567 2.68824 173.942 0 169.974 0ZM158.898 33.4822C158.898 28.7443 159.09 24.7745 162.162 24.7745L162.995 24.8393L163.057 26.6969C163.314 31.37 163.314 34.8285 163.441 37.1327C162.93 37.5167 162.162 37.7087 161.394 37.7087C159.728 37.7087 158.895 36.8134 158.895 33.4844L158.898 33.4822ZM180.134 1.28371C180.134 1.43042 180.013 1.54693 179.866 1.54693H179.284V3.83387C179.284 4.00216 179.15 4.13592 178.982 4.13592C178.813 4.13592 178.68 4.00216 178.68 3.83387V1.54693H178.097C177.95 1.54693 177.83 1.43042 177.83 1.28371C177.83 1.137 177.95 1.01618 178.097 1.01618H179.866C180.013 1.01618 180.134 1.137 180.134 1.28371ZM183.223 1.31823V3.82524C183.223 4.00216 183.102 4.13592 182.921 4.13592C182.74 4.13592 182.619 4.00216 182.619 3.82524V2.50917C182.619 2.38403 182.632 2.16397 182.641 2.02157H182.632C182.632 2.02157 182.58 2.19849 182.542 2.2891L182.14 3.16936C182.093 3.27724 182.028 3.3247 181.929 3.3247C181.83 3.3247 181.743 3.29018 181.687 3.16505L181.346 2.41424C181.251 2.20712 181.2 2.0302 181.2 2.0302H181.191C181.204 2.13376 181.213 2.38835 181.213 2.46602V3.83819C181.213 4.00216 181.092 4.13592 180.923 4.13592C180.755 4.13592 180.643 4.00216 180.643 3.83819V1.31823C180.643 1.14995 180.777 1.01618 180.945 1.01618H181.105C181.208 1.01618 181.316 1.06796 181.368 1.19741L181.795 2.22006C181.86 2.37109 181.916 2.56958 181.916 2.56958H181.924C181.924 2.56958 181.981 2.3754 182.041 2.22438L182.473 1.17584C182.516 1.06796 182.624 1.01618 182.727 1.01618H182.921C183.09 1.01618 183.223 1.14995 183.223 1.31823Z"></path>
</g>
<defs>
<clipPath id="clip0_3_739">
<rect fill="white" height="50" width="183.223"></rect>
</clipPath>
</defs>
</svg>
