<svg width="114" height="28" viewBox="0 0 114 28" fill="none" xmlns="http://www.w3.org/2000/svg">
<path d="M12.3093 16.2491L12.288 6.79898L7.49215 14.6777H6.61824L1.82241 6.85243V16.2491H0V3.27121H1.55598L7.09783 12.39L12.5544 3.27121H14.1104L14.1317 16.2491H12.3093ZM34.157 12.9993H27.1018L25.6417 16.2384H23.6914L29.7022 3.26052H31.5779L37.61 16.2384H35.617L34.157 12.9993ZM33.4962 11.5241L30.6294 5.16337L27.7625 11.5241H33.4855H33.4962ZM56.8039 14.6349V16.2491H47.1696V3.27121H56.5375V4.88543H49.0667V8.87288H55.7275V10.4443H49.0667V14.6349H56.8039ZM67.4613 3.27121H69.3583V14.6349H76.5414V16.2491H67.4613V3.27121ZM90.0017 11.7592V16.2491H88.126V11.7272L82.8506 3.27121H84.8755L89.1278 10.1129L93.3908 3.27121H95.2665L89.9911 11.7592H90.0017ZM108.375 16.3988C107.373 16.3988 106.414 16.2491 105.476 15.9498C104.549 15.6398 103.824 15.2442 103.291 14.7632L103.995 13.32C104.496 13.769 105.146 14.1325 105.935 14.4104C106.734 14.6777 107.544 14.8166 108.386 14.8166C109.483 14.8166 110.304 14.6349 110.848 14.2821C111.391 13.908 111.668 13.4269 111.668 12.8176C111.668 12.3686 111.519 12.0158 111.21 11.7379C110.922 11.4492 110.549 11.2354 110.112 11.0858C109.686 10.9361 109.068 10.7757 108.268 10.5833C107.267 10.3481 106.457 10.1129 105.839 9.87776C105.231 9.64257 104.709 9.2898 104.261 8.79805C103.835 8.3063 103.611 7.6435 103.611 6.80967C103.611 6.1148 103.792 5.49477 104.165 4.93888C104.549 4.38299 105.114 3.934 105.871 3.6026C106.627 3.27121 107.576 3.10016 108.695 3.10016C109.483 3.10016 110.251 3.19637 111.007 3.39949C111.764 3.59191 112.414 3.88055 112.958 4.25471L112.329 5.74065C111.775 5.39856 111.178 5.1313 110.549 4.96026C109.92 4.77853 109.302 4.68231 108.695 4.68231C107.618 4.68231 106.808 4.87474 106.265 5.25959C105.732 5.64443 105.466 6.13618 105.466 6.74553C105.466 7.19452 105.615 7.55798 105.924 7.83593C106.222 8.10318 106.595 8.32768 107.043 8.48803C107.501 8.63769 108.109 8.79805 108.887 8.96909C109.888 9.20428 110.688 9.43946 111.295 9.67465C111.903 9.90983 112.425 10.2626 112.851 10.7544C113.299 11.2354 113.512 11.8875 113.512 12.7C113.512 13.3842 113.32 14.0042 112.947 14.5708C112.563 15.1267 111.988 15.5756 111.221 15.907C110.453 16.2277 109.505 16.3881 108.375 16.3881V16.3988Z" fill="#120D0E"/>
</svg>
