<?xml version="1.0" encoding="utf-8"?>
<!-- Generator: Adobe Illustrator 27.7.0, SVG Export Plug-In . SVG Version: 6.00 Build 0)  -->
<svg version="1.1" id="Layer_1" xmlns="http://www.w3.org/2000/svg" xmlns:xlink="http://www.w3.org/1999/xlink" x="0px" y="0px"
	 viewBox="0 0 1920 486.2" style="enable-background:new 0 0 1920 486.2;" xml:space="preserve">
<g>
	<path d="M297.1,99.3c5,6.7,8.5,14.8,10.3,24.4c1.8,9.5,2.7,22.1,2.7,37.8v157h-2.5L174.1,97.2H99.7v1.3l10.5,16V324
		c0,15.7-0.9,28.5-2.7,38.4c-1.8,9.9-5.2,18.1-10.3,24.6v2.1h64.2v-2.1c-5-6.7-8.5-15-10.3-24.8c-1.8-9.8-2.7-22.5-2.7-38.2V153.1
		h2.5l143.6,236h53.7V161.5c0-15.7,0.9-28.3,2.7-38c1.8-9.7,5.2-17.7,10.3-24.1v-2.1h-64.2V99.3z"/>
	<path d="M424.7,326.5c0,15.1-0.9,27.2-2.7,36.3c-1.8,9.1-5.2,17.1-10.3,24.1v2.1h214.5v-59.2h-2.5c-5.9,9.8-13.7,16.5-23.5,20.2
		c-9.8,3.6-23.4,5.5-40.7,5.5h-84.4v-97h60c16,0,28.3,1.2,36.9,3.6c8.7,2.4,15.5,6.4,20.6,12h2.5v-64.2h-2.5
		c-5.3,5.3-12.2,9.2-20.6,11.5c-8.4,2.4-20.7,3.6-36.9,3.6h-60v-94h78.1c18.2,0,32,1.5,41.6,4.4c9.5,2.9,17.2,8.2,23.1,15.7h2.1
		V97.2H411.7v2.1c5,7,8.5,15.1,10.3,24.4c1.8,9.2,2.7,21.6,2.7,36.9V326.5z"/>
	<path d="M682.7,326.5c0,15.1-0.9,27.2-2.7,36.3c-1.8,9.1-5.2,17.1-10.3,24.1v2.1h214.5v-59.2h-2.5c-5.9,9.8-13.7,16.5-23.5,20.2
		c-9.8,3.6-23.4,5.5-40.7,5.5h-84.4v-97h60c16,0,28.3,1.2,36.9,3.6c8.7,2.4,15.5,6.4,20.6,12h2.5v-64.2h-2.5
		c-5.3,5.3-12.2,9.2-20.6,11.5c-8.4,2.4-20.7,3.6-36.9,3.6h-60v-94h78.1c18.2,0,32,1.5,41.6,4.4c9.5,2.9,17.2,8.2,23.1,15.7h2.1
		V97.2H669.7v2.1c5,7,8.5,15.1,10.3,24.4c1.8,9.2,2.7,21.6,2.7,36.9V326.5z"/>
	<path d="M1115.9,115.3c-24.1-12-52.1-18.1-84-18.1H922.3v2.1c5,7,8.4,15.1,10.1,24.4s2.5,21.6,2.5,36.9v162.5
		c0,17.1-0.8,30.3-2.5,39.7c-1.7,9.4-5,17.4-10.1,24.1v2.1h109.6c31.9,0,59.9-6,84-18.1c24.1-12,42.7-29.1,55.8-51.2
		c13.2-22.1,19.7-47.7,19.7-76.8c0-28.8-6.6-54.3-19.7-76.4C1158.5,144.4,1139.9,127.3,1115.9,115.3z M1122.1,307
		c-9.5,16.9-22.9,29.4-40.1,37.4c-17.2,8-37.6,12-61.1,12h-35.7V130h35.7c23.5,0,43.9,3.9,61.1,11.8c17.2,7.8,30.6,20.2,40.1,37.2
		c9.5,16.9,14.3,38.3,14.3,64C1136.4,268.7,1131.7,290,1122.1,307z"/>
	<path d="M1233.3,326.5c0,15.1-0.9,27.2-2.7,36.3c-1.8,9.1-5.2,17.1-10.3,24.1v2.1h214.5v-59.2h-2.5c-5.9,9.8-13.7,16.5-23.5,20.2
		c-9.8,3.6-23.4,5.5-40.7,5.5h-84.4v-97h60c16,0,28.3,1.2,36.9,3.6c8.7,2.4,15.5,6.4,20.6,12h2.5v-64.2h-2.5
		c-5.3,5.3-12.2,9.2-20.6,11.5c-8.4,2.4-20.7,3.6-36.9,3.6h-60v-94h78.1c18.2,0,32,1.5,41.6,4.4c9.5,2.9,17.2,8.2,23.1,15.7h2.1
		V97.2h-208.3v2.1c5,7,8.5,15.1,10.3,24.4c1.8,9.2,2.7,21.6,2.7,36.9V326.5z"/>
	<path d="M1661.7,115.3c-24.1-12-52.1-18.1-84-18.1h-109.6v2.1c5,7,8.4,15.1,10.1,24.4c1.7,9.2,2.5,21.6,2.5,36.9v162.5
		c0,17.1-0.8,30.3-2.5,39.7c-1.7,9.4-5,17.4-10.1,24.1v2.1h109.6c31.9,0,59.9-6,84-18.1c24.1-12,42.7-29.1,55.8-51.2
		c13.2-22.1,19.7-47.7,19.7-76.8c0-28.8-6.6-54.3-19.7-76.4C1704.3,144.4,1685.7,127.3,1661.7,115.3z M1668,307
		c-9.5,16.9-22.9,29.4-40.1,37.4c-17.2,8-37.6,12-61.1,12h-35.7V130h35.7c23.5,0,43.9,3.9,61.1,11.8c17.2,7.8,30.6,20.2,40.1,37.2
		c9.5,16.9,14.3,38.3,14.3,64C1682.2,268.7,1677.5,290,1668,307z"/>
	<path d="M1790.9,325.2c-17.6,0-31.9,14.3-31.9,31.9s14.3,31.9,31.9,31.9c17.6,0,31.9-14.3,31.9-31.9S1808.5,325.2,1790.9,325.2z"/>
	<path d="M1790.9,161.1c17.6,0,31.9-14.3,31.9-31.9c0-17.6-14.3-31.9-31.9-31.9c-17.6,0-31.9,14.3-31.9,31.9
		C1759,146.8,1773.3,161.1,1790.9,161.1z M1790.9,103.2c14.3,0,26,11.6,26,26c0,14.3-11.6,26-26,26c-14.3,0-26-11.6-26-26
		C1764.9,114.9,1776.6,103.2,1790.9,103.2z"/>
	<path d="M1785,131.6h5.3l8.6,14.3h6.2l-9.4-14.7c2.5-0.3,4.6-1.1,6.2-2.5c1.7-1.4,2.5-3.6,2.5-6.6c0-3.4-1-5.8-3.1-7.4
		c-2-1.5-5.1-2.3-9.1-2.3h-12.7v33.4h5.3V131.6z M1785,117.2h6.8c0.8,0,1.7,0.1,2.5,0.2c0.9,0.1,1.7,0.3,2.4,0.6
		c0.7,0.3,1.3,0.8,1.8,1.4c0.5,0.6,0.7,1.4,0.7,2.3c0,1.2-0.2,2.2-0.6,2.9c-0.4,0.7-1,1.2-1.7,1.6c-0.7,0.4-1.6,0.6-2.5,0.7
		c-1,0.1-2,0.1-3,0.1h-6.3V117.2z"/>
</g>
</svg>
