<svg xmlns="http://www.w3.org/2000/svg" width="402" viewBox="0 0 402 72" height="72" fill="none"><path fill-rule="evenodd" fill="#1a1a2e" d="m107.317 12.8702c0-11.86332 12.227-16.36663 22.035-6.583l46.917 45.9326c.682.6597 2.466.1851 2.467-.7519v-48.49808h9.183v57.31148c0 12.1607-12.887 15.0652-20.403 7.7364l-48.545-47.7813c-.682-.6641-2.471-.1934-2.471.75v48.4815h-9.183zm269.439-9.58007c13.943.00029 25.246 11.04137 25.246 24.66207 0 13.6189-11.303 24.6599-25.246 24.6602h-40.103c-.823 0-1.491.6671-1.491 1.4902v15.6836h-20.352v-66.49607zm-141.167 4.12598c5.725-9.82172 20.189-9.90375 26.034-.15039l36.706 62.20218h-1.819c-.052.007-.104.0107-.158.0107h-19.762c-.051 0-.102-.0039-.152-.0107h-.481l-.246-.417c-.03-.0386-.059-.0792-.084-.1221l-8.634-14.6387c-.201-.3408-.568-.5498-.964-.5498h-45.303c-.398.0001-.766.2123-.966.5567l-8.497 14.625c-.002.0023-.004.0044-.005.0068l-.314.5391h-.495c-.05.0069-.102.0107-.153.0107h-8.401c-.053 0-.106-.0037-.157-.0107h-1.784zm-147.4973 4.51659h-56.1836c-7.325 0-9.1935 7.5504-2.6543 10.501l50.6006 19.7217c13.7009 5.4354 11.0545 27.3073-5.3867 27.3076h-72.38867v-8.9678h57.35837c5.0032-.0002 7.1827-7.4683 1.4229-10.1084l-49.9785-18.791c-16.34795-5.28-13.54568-28.62868 3.5195-28.62891h73.6904zm156.0143 3.5576c-.4-.6795-1.405-.6758-1.803.0059l-16.191 27.8681c-.433.7455.105 1.6797.967 1.6797h32.502c.865-.0001 1.402-.9403.963-1.6855zm92.53-3.9023c-.824 0-1.491.668-1.492 1.4912v29.7441c.001.8231.669 1.4903 1.492 1.4903h29.181c9.354-.0003 16.938-7.3253 16.938-16.3614 0-9.0381-7.583-16.3639-16.938-16.3642z" clip-rule="evenodd"></path></svg>